:SAMPLES-PER-SECOND 30
:FULLY-SPECIFIED
:DEGREES
132
root  1.22771 38.3176 1.2977 -155.292 -88.1162 155.572
RightUpLeg  -34.5327 8.16146 -0.712544
RightLeg  43.6214 -5.53743 -5.91749
RightFoot  14.3858 -0.755982 3.89728
RightToes  7.56698e-010 0 -3.6325e-017
Spine  7.64819 -7.48912 -5.41872
Spine1  6.2116 -11.048 11.8352
HEad  -19.4744 27.0847 -21.2792
LeftShoulder1  3.06723 -7.01888 -22.8492
LeftArm  -23.0847 -1.27393 -47.2737
LeftForeArm  42.2832 -75.7417 -48.5264
LeftHand  -1.08395 -1.50093 18.3929
RightShoulder  1.96523 3.76384 20.7304
RightArm  -17.8398 5.26537 52.689
RightForeArm  13.6451 54.9353 15.7012
RightHand  -1.81758 7.4333 -16.6419
LeftUpLeg  18.8621 1.43187 -5.17247
LeftLeg  19.8219 -6.37966 -0.987509
LeftFoot  -4.87693 0.418295 -6.25435
LeftToes  -3.13779e-010 -2.47553e-011 -5.36621e-011
133
root  0.718285 36.8357 0.903941 76.7669 -88.5191 -76.7208
RightUpLeg  -34.4947 6.7059 1.74331
RightLeg  49.2435 -5.55726 -7.20495
RightFoot  2.12396 -0.719736 5.84263
RightToes  7.56698e-010 0 -3.6325e-017
Spine  7.07065 -8.42983 -8.95332
Spine1  6.42701 -13.9929 18.7163
HEad  -19.8374 29.8486 -22.376
LeftShoulder1  2.58748 -6.10395 -20.5402
LeftArm  -25.5198 -0.880779 -46.5398
LeftForeArm  129.103 -73.9874 -140.084
LeftHand  -0.67314 0.600433 16.3974
RightShoulder  1.95507 3.46582 21.8118
RightArm  -19.9146 0.578523 51.2384
RightForeArm  35.5768 74.2094 41.4418
RightHand  -1.29414 5.34985 -14.2241
LeftUpLeg  21.1498 -4.52461 -4.45097
LeftLeg  21.7759 -7.18437 -1.84042
LeftFoot  -16.7066 0.0167301 -1.98338
LeftToes  -3.13779e-010 -2.47553e-011 -5.36621e-011
134
root  0.307156 35.7483 0.618745 74.7872 -87.1349 -75.2596
RightUpLeg  -34.0658 6.30676 4.50514
RightLeg  52.7045 -5.66907 -8.28948
RightFoot  -7.61124 -0.154947 2.97991
RightToes  7.56698e-010 0 -3.6325e-017
Spine  6.60405 -7.75146 -9.81388
Spine1  6.80683 -14.3011 21.788
HEad  -20.0714 30.3099 -22.3996
LeftShoulder1  2.52935 -6.1677 -19.6828
LeftArm  -27.3602 -2.90107 -43.3649
LeftForeArm  148.096 -59.6487 -161.701
LeftHand  -0.377687 2.52458 14.9908
RightShoulder  1.9471 3.30723 22.3841
RightArm  -21.4246 -1.48086 50.2722
RightForeArm  97.3853 79.4614 106.155
RightHand  -0.984802 3.71193 -12.8005
LeftUpLeg  23.318 -7.57634 -4.89991
LeftLeg  23.0675 -2.5483 -0.383953
LeftFoot  -25.0436 0.246172 1.04674
LeftToes  -3.13779e-010 -2.47553e-011 -5.36621e-011
135
root  0.0867751 35.5833 0.445448 91.6324 -86.2685 -91.9256
RightUpLeg  -33.5367 4.8926 6.54534
RightLeg  52.2807 -5.74358 -8.27299
RightFoot  -10.2343 -0.0407147 -0.820413
RightToes  7.56698e-010 0 -3.6325e-017
Spine  5.62741 -6.48152 -9.00952
Spine1  7.53749 -13.1542 21.9441
HEad  -20.4729 29.1782 -22.1204
LeftShoulder1  2.6646 -6.54406 -20.079
LeftArm  -27.4165 -3.59009 -41.0651
LeftForeArm  153.806 -53.1147 -165.617
LeftHand  -0.172461 3.94418 13.2142
RightShoulder  1.99501 3.44334 22.5245
RightArm  -20.9825 -0.243999 49.2536
RightForeArm  106.097 78.468 115.016
RightHand  -0.972059 3.39139 -13.0506
LeftUpLeg  23.6376 -7.30547 -4.88077
LeftLeg  23.5308 2.19659 1.80143
LeftFoot  -26.4771 0.117666 -0.407887
LeftToes  -3.13779e-010 -2.47553e-011 -5.36621e-011
136
root  0.285554 36.4469 0.227013 76.1169 -85.7063 -75.9641
RightUpLeg  -31.6055 1.3857 7.2206
RightLeg  46.6389 -4.97213 -5.99865
RightFoot  -5.72476 0.00973106 -1.32141
RightToes  7.56698e-010 0 -3.6325e-017
Spine  6.2534 -5.50302 -8.8877
Spine1  7.41833 -11.9067 21.4253
HEad  -20.5462 26.8437 -20.5118
LeftShoulder1  2.65485 -6.6743 -19.6087
LeftArm  -23.5672 -1.64598 -43.8295
LeftForeArm  156.634 -57.5679 -163.269
LeftHand  -0.1989 3.76805 13.3645
RightShoulder  2.02889 3.68398 21.9991
RightArm  -18.7888 3.04129 49.7718
RightForeArm  53.3387 77.4256 59.9006
RightHand  -1.29948 4.51201 -15.3641
LeftUpLeg  20.3038 -7.81774 -3.79194
LeftLeg  26.2767 3.79232 2.33466
LeftFoot  -19.5303 -0.151731 -4.07794
LeftToes  -3.13779e-010 -2.47553e-011 -5.36621e-011
137
root  0.932701 38.0404 -0.0584377 46.1074 -84.3304 -45.8975
RightUpLeg  -26.9824 -2.27785 6.89677
RightLeg  34.8253 -3.83655 -3.15807
RightFoot  3.08495 -0.16584 1.34581
RightToes  7.56698e-010 0 -3.6325e-017
Spine  9.33387 -4.57636 -8.27358
Spine1  6.06411 -10.1083 19.1816
HEad  -19.3582 22.4003 -15.7665
LeftShoulder1  2.52399 -6.86974 -17.7303
LeftArm  -18.5604 0.530566 -50.0042
LeftForeArm  142.013 -71.5226 -144.822
LeftHand  -0.490091 1.70441 15.3256
RightShoulder  1.9996 3.79693 21.0989
RightArm  -16.618 6.54126 52.2901
RightForeArm  16.5581 61.8745 19.9628
RightHand  -1.89008 6.42248 -18.7319
LeftUpLeg  12.5996 -8.72718 -1.96868
LeftLeg  33.4914 3.67027 3.02386
LeftFoot  -3.84837 0.262438 -4.68151
LeftToes  -3.13779e-010 -2.47553e-011 -5.36621e-011
138
root  1.70616 39.6668 -0.300689 31.9548 -82.1102 -31.5596
RightUpLeg  -20.6597 -2.87614 6.08925
RightLeg  20.1485 -4.72179 -1.83971
RightFoot  10.1189 -0.710031 4.189
RightToes  7.56698e-010 0 -3.6325e-017
Spine  12.6167 -3.48493 -4.30017
Spine1  4.74582 -6.98066 12.9597
HEad  -17.0838 14.8584 -8.18379
LeftShoulder1  2.49629 -7.52592 -15.8749
LeftArm  -15.1183 -0.294227 -54.9045
LeftForeArm  56.0158 -77.2536 -57.0869
LeftHand  -0.97908 -1.35124 16.9781
RightShoulder  1.96941 3.90341 20.2388
RightArm  -15.0224 9.181 54.7326
RightForeArm  7.79332 42.2459 9.31068
RightHand  -2.35266 7.64666 -21.0712
LeftUpLeg  1.70514 -9.57823 -0.766606
LeftLeg  42.9812 5.29732 5.72992
LeftFoot  13.2781 0.412071 -2.17923
LeftToes  -3.13779e-010 -2.47553e-011 -5.36621e-011
139
root  2.18289 40.8596 -0.499493 26.81 -80.437 -25.7037
RightUpLeg  -15.0908 0.170137 4.95902
RightLeg  10.677 -8.45391 -1.7199
RightFoot  9.54058 -0.923566 5.38594
RightToes  7.56698e-010 0 -3.6325e-017
Spine  14.165 -2.11887 1.89347
Spine1  4.21221 -2.81091 4.18131
HEad  -15.2829 4.82953 -0.543836
LeftShoulder1  2.63469 -8.25155 -15.6249
LeftArm  -11.4469 -4.78632 -56.9952
LeftForeArm  14.4534 -55.1713 -14.088
LeftHand  -1.47347 -3.84411 18.6487
RightShoulder  1.99123 4.34987 18.9213
RightArm  -12.2505 10.4248 55.5571
RightForeArm  3.34237 27.6813 5.80312
RightHand  -2.52702 8.09772 -21.8258
LeftUpLeg  -9.56478 -8.81967 -0.270559
LeftLeg  50.9054 6.65675 9.09587
LeftFoot  19.9008 0.281645 -1.41927
LeftToes  -3.13779e-010 -2.47553e-011 -5.36621e-011
140
root  2.28875 41.7293 -0.758527 19.811 -78.8292 -18.4599
RightUpLeg  -10.2386 0.0879276 4.8431
RightLeg  10.1865 -7.8388 -2.46403
RightFoot  3.20433 -0.783616 6.35136
RightToes  7.56698e-010 0 -3.6325e-017
Spine  14.833 -0.42165 6.16129
Spine1  4.43796 1.09945 -3.14733
HEad  -15.177 -5.30139 4.80031
LeftShoulder1  2.86177 -8.44246 -17.319
LeftArm  -5.96238 -10.635 -57.2759
LeftForeArm  5.23277 -32.6088 -6.77369
LeftHand  -1.6767 -3.97132 20.9244
RightShoulder  2.03801 5.11906 17.0316
RightArm  -9.30302 10.3891 54.8745
RightForeArm  0.136153 20.6112 5.25101
RightHand  -2.66976 8.53405 -22.3135
LeftUpLeg  -18.4103 -7.66198 -1.05022
LeftLeg  54.0327 5.77916 8.96618
LeftFoot  16.6328 0.483593 -2.40097
LeftToes  -3.13779e-010 -2.47553e-011 -5.36621e-011
